<svg width="20" height="20" viewBox="0 0 20 20" fill="none" xmlns="http://www.w3.org/2000/svg">
<g id="Vector">
<path d="M7.5 1.25V5H1.25L1.25 1.25H7.5ZM1.25 0C0.559644 0 0 0.559644 0 1.25V5C0 5.69036 0.559644 6.25 1.25 6.25H7.5C8.19036 6.25 8.75 5.69036 8.75 5V1.25C8.75 0.559644 8.19036 0 7.5 0H1.25Z" fill="white"/>
<path d="M18.75 15V18.75H12.5V15H18.75ZM12.5 13.75C11.8096 13.75 11.25 14.3096 11.25 15V18.75C11.25 19.4404 11.8096 20 12.5 20H18.75C19.4404 20 20 19.4404 20 18.75V15C20 14.3096 19.4404 13.75 18.75 13.75H12.5Z" fill="white"/>
<path d="M7.5 10V18.75H1.25L1.25 10H7.5ZM1.25 8.75C0.559644 8.75 0 9.30964 0 10V18.75C0 19.4404 0.559644 20 1.25 20H7.5C8.19036 20 8.75 19.4404 8.75 18.75V10C8.75 9.30964 8.19036 8.75 7.5 8.75H1.25Z" fill="white"/>
<path d="M18.75 1.25V10H12.5V1.25H18.75ZM12.5 0C11.8096 0 11.25 0.559644 11.25 1.25V10C11.25 10.6904 11.8096 11.25 12.5 11.25H18.75C19.4404 11.25 20 10.6904 20 10V1.25C20 0.559644 19.4404 0 18.75 0H12.5Z" fill="white"/>
</g>
</svg>
